REM MD5 88ec6decd59263412453c64bf3d20407
FILE "Play-Pre Vol. 11 (Japan).bin" BINARY
  TRACK 01 MODE2/2352
    INDEX 01 00:00:00
  TRACK 02 AUDIO
    INDEX 00 37:07:67
    INDEX 01 37:09:67
  TRACK 03 AUDIO
    INDEX 00 39:38:60
    INDEX 01 39:40:60
  TRACK 04 AUDIO
    INDEX 00 40:09:18
    INDEX 01 40:11:18
REM LEADOUT 44:11:61
